<svg xmlns="http://www.w3.org/2000/svg" xmlns:xlink="http://www.w3.org/1999/xlink" width="500" zoomAndPan="magnify" viewBox="0 0 375 374.999991" height="500" preserveAspectRatio="xMidYMid meet" version="1.0"><defs><g/><clipPath id="id1"><path d="M 217 78.515625 L 251 78.515625 L 251 112 L 217 112 Z M 217 78.515625 " clip-rule="nonzero"/></clipPath></defs><g clip-path="url(#id1)"><path fill="#76d2e5" d="M 250.113281 94.988281 C 250.113281 94.988281 239.128906 95.585938 236.699219 98.019531 C 234.269531 100.457031 233.675781 111.460938 233.675781 111.460938 C 233.675781 111.460938 233.082031 100.457031 230.648438 98.019531 C 228.21875 95.585938 217.238281 94.988281 217.238281 94.988281 C 217.238281 94.988281 228.21875 94.394531 230.648438 91.957031 C 233.082031 89.519531 233.675781 78.515625 233.675781 78.515625 C 233.675781 78.515625 234.269531 89.519531 236.699219 91.957031 C 239.128906 94.394531 250.113281 94.988281 250.113281 94.988281 " fill-opacity="1" fill-rule="nonzero"/></g><path fill="#76d2e5" d="M 211.695312 100.625 C 211.695312 100.625 204.46875 101.015625 202.871094 102.617188 C 201.269531 104.222656 200.878906 111.460938 200.878906 111.460938 C 200.878906 111.460938 200.488281 104.222656 198.890625 102.617188 C 197.289062 101.015625 190.066406 100.625 190.066406 100.625 C 190.066406 100.625 197.289062 100.230469 198.890625 98.632812 C 200.488281 97.027344 200.878906 89.785156 200.878906 89.785156 C 200.878906 89.785156 201.269531 97.027344 202.871094 98.632812 C 204.46875 100.230469 211.695312 100.625 211.695312 100.625 " fill-opacity="1" fill-rule="nonzero"/><path fill="#76d2e5" d="M 260.929688 133.570312 C 260.929688 133.570312 253.703125 133.964844 252.101562 135.5625 C 250.503906 137.167969 250.113281 144.410156 250.113281 144.410156 C 250.113281 144.410156 249.722656 137.167969 248.121094 135.5625 C 246.523438 133.964844 239.300781 133.570312 239.300781 133.570312 C 239.300781 133.570312 246.523438 133.179688 248.121094 131.578125 C 249.722656 129.972656 250.113281 122.734375 250.113281 122.734375 C 250.113281 122.734375 250.503906 129.972656 252.101562 131.578125 C 253.703125 133.179688 260.929688 133.570312 260.929688 133.570312 " fill-opacity="1" fill-rule="nonzero"/><path fill="#40c0d8" d="M 190.019531 186.433594 C 194.9375 194.398438 194.625 216.457031 202.214844 218.679688 C 209.199219 220.726562 218.984375 205.03125 226.1875 185.78125 C 220.371094 183.519531 214.957031 180.972656 209.917969 178.203125 C 202.816406 183.347656 196.121094 185.773438 190.019531 186.433594 " fill-opacity="1" fill-rule="nonzero"/><path fill="#76d2e5" d="M 233.742188 129.046875 C 231.128906 123.066406 218.394531 112.464844 211.882812 112.199219 C 205.5625 111.9375 192.128906 121.761719 185.804688 121.761719 C 179.480469 121.761719 163.402344 111.941406 157.085938 112.203125 C 155.527344 112.269531 153.761719 112.925781 151.945312 113.964844 C 160.222656 132.832031 176.4375 158.730469 206.964844 176.53125 C 212.734375 174.757812 216.289062 172.925781 216.289062 172.925781 C 214.132812 174.941406 212.007812 176.6875 209.917969 178.203125 C 214.957031 180.972656 220.371094 183.519531 226.1875 185.78125 C 233.921875 165.101562 238.671875 140.320312 233.742188 129.046875 " fill-opacity="1" fill-rule="nonzero"/><path fill="#40c0d8" d="M 151.945312 113.964844 C 146.171875 117.277344 139.859375 124.496094 137.867188 129.046875 C 128.351562 150.808594 153.351562 221.765625 169.398438 218.679688 C 177.230469 217.171875 176.726562 194.269531 181.738281 186.296875 C 165.582031 183.996094 155.234375 170.550781 155.234375 170.550781 C 174.023438 183.597656 195.140625 180.175781 206.964844 176.53125 C 176.4375 158.730469 160.222656 132.832031 151.945312 113.964844 " fill-opacity="1" fill-rule="nonzero"/><g fill="#000000" fill-opacity="1"><g transform="translate(85.710936, 272.184503)"><g><path d="M 2.117188 -0.839844 L 2.40625 -0.289062 L 3.042969 0 L 5.074219 0.0859375 L 6.523438 -0.0273438 L 7.132812 -0.289062 L 7.480469 -1.160156 L 7.394531 -2.085938 L 7.453125 -2.636719 L 7.421875 -5.710938 L 7.683594 -6.292969 L 8.261719 -6.554688 L 8.902344 -6.609375 L 9.511719 -6.496094 L 10.089844 -6.609375 L 10.671875 -6.554688 L 11.277344 -6.582031 L 11.859375 -6.523438 L 13.046875 -6.582031 L 13.65625 -6.871094 L 13.945312 -7.769531 L 13.917969 -10.351562 L 13.628906 -10.929688 L 13.019531 -11.164062 L 11.597656 -11.222656 L 10.0625 -11.105469 L 8.929688 -11.25 L 8.292969 -11.222656 L 7.710938 -11.453125 L 7.394531 -12.0625 L 7.394531 -12.875 L 7.453125 -13.425781 L 7.394531 -14.730469 L 7.683594 -15.308594 L 8.234375 -15.6875 L 9.164062 -15.6875 L 10.003906 -15.628906 L 10.523438 -15.65625 L 11.105469 -15.628906 L 11.714844 -15.6875 L 13.917969 -15.628906 L 14.496094 -15.917969 L 14.789062 -16.5 L 14.730469 -17.976562 L 14.789062 -19.078125 L 14.441406 -19.949219 L 13.945312 -20.265625 L 12.207031 -20.238281 L 11.570312 -20.324219 L 10.4375 -20.265625 L 9.917969 -20.324219 L 9.046875 -20.265625 L 8.464844 -20.296875 L 7.566406 -20.238281 L 6.4375 -20.238281 L 5.914062 -20.296875 L 4.4375 -20.296875 L 3.828125 -20.238281 L 3.015625 -20.265625 L 2.378906 -19.949219 L 2.203125 -19.425781 L 2.117188 -18.238281 L 2.203125 -17.367188 L 2.085938 -14.121094 L 2.144531 -13.628906 L 2.175781 -13.019531 L 2.117188 -12.496094 L 2.175781 -11.828125 L 2.117188 -11.308594 L 2.085938 -10.757812 L 2.144531 -10.207031 L 2.085938 -9.539062 Z M 2.117188 -0.839844 "/></g></g></g><g fill="#000000" fill-opacity="1"><g transform="translate(101.511667, 272.184503)"><g><path d="M 17.105469 0.0585938 L 18.207031 -0.0273438 L 18.757812 0.0273438 L 19.660156 0 L 20.46875 -0.144531 L 20.558594 -0.839844 L 20.355469 -1.507812 L 19.917969 -2.582031 L 19.136719 -4.089844 L 18.730469 -5.160156 L 18.152344 -6.203125 L 17.050781 -8.84375 L 16.757812 -9.277344 L 16.46875 -9.828125 L 16.296875 -10.46875 L 16.035156 -10.902344 L 15.859375 -11.367188 L 15.25 -12.4375 L 15.046875 -13.046875 L 13.132812 -17.078125 L 12.960938 -17.65625 L 12.640625 -18.179688 L 12.46875 -18.703125 L 11.917969 -19.714844 L 11.425781 -20.238281 L 10.46875 -20.527344 L 9.539062 -20.210938 L 9.015625 -19.714844 L 8.757812 -19.222656 L 8.554688 -18.644531 L 8.292969 -18.238281 L 7.132812 -15.570312 L 6.8125 -15.136719 L 6.667969 -14.554688 L 6.351562 -14.003906 L 6.175781 -13.484375 L 3.21875 -7.277344 L 3.042969 -6.640625 L 2.753906 -6.203125 L 2.550781 -5.625 L 2.03125 -4.695312 L 1.59375 -3.539062 L 1.277344 -3.132812 L 1.128906 -2.609375 L 0.550781 -1.449219 L 0.375 -0.871094 L 0.523438 -0.144531 L 1.101562 0.0273438 L 2.234375 -0.0273438 L 2.8125 0.0273438 L 4.4375 -0.0273438 L 5.101562 -0.230469 L 5.652344 -0.753906 L 6.175781 -1.710938 L 6.726562 -2.261719 L 7.335938 -2.582031 L 7.886719 -2.492188 L 9.105469 -2.609375 L 9.625 -2.523438 L 12.46875 -2.550781 L 12.988281 -2.492188 L 13.628906 -2.582031 L 14.265625 -2.261719 L 14.816406 -1.796875 L 15.078125 -1.246094 L 15.25 -0.726562 L 15.832031 -0.289062 L 16.5 0 Z M 10.523438 -7.160156 L 9.945312 -7.277344 L 9.277344 -7.21875 L 8.816406 -7.421875 L 8.785156 -7.972656 L 10.148438 -11.105469 L 10.46875 -11.367188 L 10.875 -11.132812 L 12.234375 -7.945312 L 12.121094 -7.421875 L 11.683594 -7.191406 Z M 10.523438 -7.160156 "/></g></g></g><g fill="#000000" fill-opacity="1"><g transform="translate(122.559983, 272.184503)"><g><path d="M 10.089844 0.230469 L 11.539062 0.347656 L 13.570312 0.203125 L 15.28125 -0.144531 L 15.800781 -0.433594 L 16.410156 -0.636719 L 16.902344 -0.871094 L 18.324219 -1.882812 L 19.136719 -2.695312 L 19.804688 -3.566406 L 20.414062 -4.609375 L 21.167969 -6.8125 L 20.992188 -7.335938 L 20.414062 -7.710938 L 18.789062 -7.597656 L 18.207031 -7.683594 L 17.628906 -7.65625 L 17.050781 -7.683594 L 16.382812 -7.335938 L 15.917969 -6.871094 L 15.628906 -6.320312 L 14.960938 -5.566406 L 14.496094 -5.160156 L 14.0625 -4.988281 L 13.046875 -4.4375 L 11.511719 -4.347656 L 10.671875 -4.4375 L 9.625 -4.8125 L 8.613281 -5.335938 L 7.769531 -6.089844 L 7.132812 -7.105469 L 6.929688 -7.683594 L 6.726562 -8.089844 L 6.582031 -8.613281 L 6.496094 -9.25 L 6.496094 -11.019531 L 6.699219 -12.179688 L 7.132812 -13.222656 L 7.421875 -13.773438 L 8.117188 -14.585938 L 8.816406 -15.136719 L 9.597656 -15.570312 L 11.539062 -15.832031 L 12.785156 -15.773438 L 13.6875 -15.511719 L 14.207031 -15.308594 L 14.613281 -14.992188 L 15.453125 -14.148438 L 15.773438 -13.714844 L 16.324219 -13.164062 L 16.992188 -12.84375 L 17.511719 -12.902344 L 18.121094 -12.875 L 18.703125 -12.902344 L 19.511719 -12.816406 L 20.382812 -12.902344 L 20.875 -13.132812 L 21.078125 -13.714844 L 20.90625 -14.351562 L 20.703125 -14.875 L 20.527344 -15.484375 L 20.210938 -15.945312 L 19.949219 -16.410156 L 19.542969 -16.902344 L 19.222656 -17.453125 L 18.410156 -18.296875 L 16.441406 -19.542969 L 13.65625 -20.46875 L 13.105469 -20.5 L 12.527344 -20.585938 L 10.726562 -20.617188 L 7.914062 -20.066406 L 5.769531 -19.050781 L 4.929688 -18.410156 L 3.683594 -17.28125 L 2.898438 -16.296875 L 2.347656 -15.453125 L 1.625 -13.832031 L 1.332031 -12.640625 L 1.042969 -10.148438 L 1.21875 -8.03125 L 1.625 -6.378906 L 2.871094 -3.855469 L 4.058594 -2.582031 L 5.363281 -1.449219 L 6.609375 -0.78125 L 7.914062 -0.230469 L 8.4375 -0.117188 L 9.015625 0.0859375 L 9.539062 0.203125 Z M 10.089844 0.230469 "/></g></g></g><g fill="#000000" fill-opacity="1"><g transform="translate(144.68101, 272.184503)"><g><path d="M 7.566406 0.0585938 L 9.511719 0 L 10.351562 -0.289062 L 10.640625 -1.101562 L 10.726562 -2.609375 L 10.640625 -3.710938 L 10.699219 -4.320312 L 10.671875 -5.480469 L 10.726562 -6.003906 L 10.640625 -6.640625 L 10.699219 -11.308594 L 10.613281 -11.917969 L 10.699219 -14.441406 L 10.929688 -15.308594 L 11.480469 -15.65625 L 12.613281 -15.714844 L 13.6875 -15.570312 L 14.292969 -15.65625 L 14.816406 -15.628906 L 15.308594 -15.945312 L 15.65625 -16.585938 L 15.6875 -19.339844 L 15.367188 -19.917969 L 14.816406 -20.296875 L 13.019531 -20.296875 L 12.46875 -20.355469 L 11.859375 -20.265625 L 11.308594 -20.324219 L 8.960938 -20.210938 L 8.378906 -20.324219 L 7.828125 -20.355469 L 7.21875 -20.265625 L 6.582031 -20.324219 L 6.058594 -20.210938 L 4.347656 -20.296875 L 3.449219 -20.210938 L 1.421875 -20.324219 L 0.871094 -20.035156 L 0.523438 -19.367188 L 0.550781 -18.789062 L 0.492188 -17.339844 L 0.550781 -16.441406 L 0.8125 -15.917969 L 1.332031 -15.628906 L 1.914062 -15.6875 L 4.667969 -15.628906 L 5.21875 -15.339844 L 5.539062 -14.757812 L 5.480469 -13.832031 L 5.539062 -13.019531 L 5.507812 -12.382812 L 5.539062 -11.800781 L 5.480469 -10.988281 L 5.566406 -6.667969 L 5.507812 -6.089844 L 5.480469 -3.742188 L 5.539062 -3.132812 L 5.507812 -1.449219 L 5.449219 -0.898438 L 5.828125 -0.261719 L 6.667969 0.0273438 Z M 7.566406 0.0585938 "/></g></g></g><g fill="#000000" fill-opacity="1"><g transform="translate(160.88764, 272.184503)"><g><path d="M 9.972656 0.375 L 10.84375 0.289062 L 11.394531 0.320312 L 13.65625 -0.261719 L 14.699219 -0.8125 L 15.65625 -1.449219 L 16.46875 -2.261719 L 17.136719 -3.277344 L 17.308594 -3.855469 L 17.601562 -4.347656 L 17.859375 -5.566406 L 18.007812 -6.957031 L 18.007812 -14.789062 L 17.949219 -15.339844 L 18.007812 -15.976562 L 17.949219 -16.441406 L 17.949219 -18.847656 L 18.035156 -19.425781 L 17.65625 -20.035156 L 17.019531 -20.238281 L 15.195312 -20.179688 L 13.976562 -20.265625 L 13.367188 -19.976562 L 13.046875 -19.339844 L 13.105469 -7.914062 L 12.902344 -6.117188 L 12.730469 -5.683594 L 12.410156 -5.101562 L 11.917969 -4.753906 L 10.902344 -4.378906 L 9.164062 -4.378906 L 8.496094 -4.523438 L 8.003906 -4.8125 L 7.539062 -5.160156 L 7.191406 -5.625 L 7.015625 -6.175781 L 6.84375 -7.859375 L 6.929688 -17.195312 L 6.871094 -17.628906 L 6.929688 -18.558594 L 6.871094 -19.398438 L 6.523438 -20.035156 L 5.914062 -20.296875 L 5.363281 -20.296875 L 4.785156 -20.210938 L 3.539062 -20.324219 L 2.929688 -20.238281 L 2.320312 -20.007812 L 1.941406 -19.457031 L 2 -18.875 L 2 -18.179688 L 1.941406 -17.714844 L 2.03125 -13.65625 L 1.941406 -13.078125 L 2 -12.527344 L 1.914062 -7.859375 L 2.085938 -5.539062 L 2.378906 -4.347656 L 2.839844 -3.363281 L 3.507812 -2.320312 L 3.855469 -1.914062 L 4.292969 -1.535156 L 5.21875 -0.929688 L 5.800781 -0.667969 L 6.234375 -0.40625 L 7.335938 0.0859375 L 8.464844 0.320312 L 9.046875 0.320312 Z M 9.972656 0.375 "/></g></g></g><g fill="#000000" fill-opacity="1"><g transform="translate(180.892243, 272.184503)"><g><path d="M 2.175781 -1.1875 L 2.464844 -0.289062 L 3.304688 0.0859375 L 3.886719 0 L 4.8125 0.0859375 L 5.277344 0.0273438 L 6.148438 0.0273438 L 7.074219 -0.261719 L 7.335938 -1.101562 L 7.335938 -2.085938 L 7.394531 -2.609375 L 7.308594 -3.21875 L 7.363281 -5.074219 L 7.625 -5.652344 L 8.175781 -5.972656 L 9.859375 -5.742188 L 10.4375 -5.25 L 10.785156 -4.667969 L 11.019531 -4.144531 L 11.628906 -3.277344 L 12.179688 -2.234375 L 12.496094 -1.796875 L 12.730469 -1.21875 L 13.046875 -0.726562 L 13.6875 -0.203125 L 14.671875 0.0585938 L 16.960938 0.0273438 L 17.511719 0.0859375 L 18.46875 0.0585938 L 19.019531 -0.203125 L 19.195312 -0.839844 L 18.875 -1.480469 L 18.527344 -1.882812 L 18.296875 -2.4375 L 17.308594 -3.914062 L 17.050781 -4.4375 L 16.121094 -5.945312 L 15.773438 -6.378906 L 15.746094 -7.074219 L 16.003906 -7.710938 L 16.410156 -8.148438 L 16.816406 -8.496094 L 17.949219 -10.523438 L 18.324219 -12.207031 L 18.265625 -14.035156 L 18.179688 -14.613281 L 17.65625 -16.265625 L 17.425781 -16.757812 L 17.105469 -17.222656 L 15.453125 -18.960938 L 14.441406 -19.511719 L 13.335938 -19.890625 L 11.683594 -20.265625 L 10.757812 -20.296875 L 9.917969 -20.238281 L 8.175781 -20.238281 L 7.597656 -20.355469 L 7.015625 -20.355469 L 6.496094 -20.210938 L 5.914062 -20.210938 L 5.335938 -20.324219 L 4.695312 -20.355469 L 2.988281 -20.210938 L 2.464844 -19.917969 L 2.117188 -19.109375 L 2.144531 -12.46875 L 2.203125 -11.886719 L 2.117188 -10.726562 L 2.144531 -10.089844 L 2.144531 -9.511719 L 2.203125 -8.960938 L 2.144531 -8.410156 L 2.117188 -6.058594 L 2.175781 -5.480469 Z M 8.175781 -10.613281 L 7.597656 -10.929688 L 7.363281 -11.394531 L 7.363281 -13.132812 L 7.308594 -13.628906 L 7.363281 -14.84375 L 7.625 -15.394531 L 8.234375 -15.628906 L 8.816406 -15.597656 L 9.972656 -15.714844 L 10.785156 -15.542969 L 11.539062 -15.484375 L 12.089844 -15.339844 L 12.816406 -14.441406 L 12.988281 -13.976562 L 13.105469 -13.222656 L 13.019531 -12.351562 L 12.757812 -11.773438 L 12.4375 -11.335938 L 12.121094 -11.074219 L 11.597656 -10.84375 L 10.757812 -10.640625 L 10.207031 -10.613281 L 8.816406 -10.671875 Z M 8.175781 -10.613281 "/></g></g></g><g fill="#000000" fill-opacity="1"><g transform="translate(201.012809, 272.184503)"><g><path d="M 17.105469 0.0585938 L 18.207031 -0.0273438 L 18.757812 0.0273438 L 19.660156 0 L 20.46875 -0.144531 L 20.558594 -0.839844 L 20.355469 -1.507812 L 19.917969 -2.582031 L 19.136719 -4.089844 L 18.730469 -5.160156 L 18.152344 -6.203125 L 17.050781 -8.84375 L 16.757812 -9.277344 L 16.46875 -9.828125 L 16.296875 -10.46875 L 16.035156 -10.902344 L 15.859375 -11.367188 L 15.25 -12.4375 L 15.046875 -13.046875 L 13.132812 -17.078125 L 12.960938 -17.65625 L 12.640625 -18.179688 L 12.46875 -18.703125 L 11.917969 -19.714844 L 11.425781 -20.238281 L 10.46875 -20.527344 L 9.539062 -20.210938 L 9.015625 -19.714844 L 8.757812 -19.222656 L 8.554688 -18.644531 L 8.292969 -18.238281 L 7.132812 -15.570312 L 6.8125 -15.136719 L 6.667969 -14.554688 L 6.351562 -14.003906 L 6.175781 -13.484375 L 3.21875 -7.277344 L 3.042969 -6.640625 L 2.753906 -6.203125 L 2.550781 -5.625 L 2.03125 -4.695312 L 1.59375 -3.539062 L 1.277344 -3.132812 L 1.128906 -2.609375 L 0.550781 -1.449219 L 0.375 -0.871094 L 0.523438 -0.144531 L 1.101562 0.0273438 L 2.234375 -0.0273438 L 2.8125 0.0273438 L 4.4375 -0.0273438 L 5.101562 -0.230469 L 5.652344 -0.753906 L 6.175781 -1.710938 L 6.726562 -2.261719 L 7.335938 -2.582031 L 7.886719 -2.492188 L 9.105469 -2.609375 L 9.625 -2.523438 L 12.46875 -2.550781 L 12.988281 -2.492188 L 13.628906 -2.582031 L 14.265625 -2.261719 L 14.816406 -1.796875 L 15.078125 -1.246094 L 15.25 -0.726562 L 15.832031 -0.289062 L 16.5 0 Z M 10.523438 -7.160156 L 9.945312 -7.277344 L 9.277344 -7.21875 L 8.816406 -7.421875 L 8.785156 -7.972656 L 10.148438 -11.105469 L 10.46875 -11.367188 L 10.875 -11.132812 L 12.234375 -7.945312 L 12.121094 -7.421875 L 11.683594 -7.191406 Z M 10.523438 -7.160156 "/></g></g></g><g fill="#000000" fill-opacity="1"><g transform="translate(222.061125, 272.184503)"><g><path d="M 2.203125 -1.042969 L 2.40625 -0.289062 L 2.957031 0 L 3.539062 0.0585938 L 4.753906 -0.0273438 L 5.886719 0.0273438 L 6.988281 -0.0273438 L 7.539062 0.0585938 L 8.175781 0 L 13.917969 0.0273438 L 14.46875 -0.261719 L 14.789062 -1.160156 L 14.757812 -3.507812 L 14.496094 -4.378906 L 13.976562 -4.726562 L 13.367188 -4.667969 L 12.816406 -4.550781 L 12.207031 -4.640625 L 11.019531 -4.609375 L 10.4375 -4.726562 L 9.917969 -4.640625 L 8.785156 -4.695312 L 8.175781 -4.640625 L 7.597656 -4.871094 L 7.363281 -5.449219 L 7.394531 -15.28125 L 7.335938 -15.976562 L 7.394531 -17.136719 L 7.308594 -18.789062 L 7.335938 -19.339844 L 7.046875 -19.976562 L 6.464844 -20.324219 L 5.335938 -20.324219 L 4.753906 -20.210938 L 3.59375 -20.324219 L 3.042969 -20.238281 L 2.4375 -20.007812 L 2.175781 -19.367188 L 2.175781 -15.308594 L 2.117188 -14.757812 L 2.175781 -14.179688 L 2.085938 -13.105469 L 2.117188 -12.46875 L 2.175781 -11.917969 Z M 2.203125 -1.042969 "/></g></g></g><g fill="#000000" fill-opacity="1"><g transform="translate(237.658917, 272.184503)"><g><path d="M 9.714844 0.117188 L 10.875 0.0585938 L 11.394531 -0.230469 L 11.683594 -0.78125 L 11.683594 -3.652344 L 11.335938 -4.203125 L 10.699219 -4.523438 L 10.089844 -4.523438 L 9.394531 -4.753906 L 9.046875 -5.421875 L 9.132812 -5.972656 L 9.105469 -9.164062 L 9.164062 -9.800781 L 9.046875 -11.886719 L 9.164062 -14.816406 L 9.367188 -15.484375 L 10.003906 -15.746094 L 10.582031 -15.832031 L 11.191406 -16.0625 L 11.480469 -16.527344 L 11.511719 -19.398438 L 11.164062 -19.949219 L 10.640625 -20.265625 L 7.132812 -20.265625 L 6.609375 -20.324219 L 6.03125 -20.210938 L 3.652344 -20.210938 L 3.101562 -20.296875 L 2.4375 -20.296875 L 1.855469 -20.007812 L 1.566406 -19.3125 L 1.652344 -17.164062 L 1.59375 -16.613281 L 1.914062 -16.035156 L 2.550781 -15.714844 L 3.132812 -15.714844 L 3.683594 -15.367188 L 3.941406 -14.585938 L 4.03125 -5.683594 L 3.710938 -4.8125 L 1.796875 -4.234375 L 1.480469 -3.710938 L 1.390625 -1.042969 L 1.683594 -0.261719 L 2.261719 0 L 2.8125 0 L 3.363281 -0.0585938 L 4.203125 0.0585938 L 5.101562 0.0273438 L 5.683594 -0.0273438 L 6.84375 0.0859375 L 7.710938 -0.0273438 L 9.132812 -0.0273438 Z M 9.714844 0.117188 "/></g></g></g><g fill="#000000" fill-opacity="1"><g transform="translate(250.821362, 272.184503)"><g><path d="M 17.105469 -0.492188 L 17.890625 -0.0273438 L 18.703125 0.0585938 L 19.339844 -0.144531 L 19.628906 -0.726562 L 19.6875 -11.308594 L 19.601562 -11.800781 L 19.601562 -14.671875 L 19.6875 -15.367188 L 19.601562 -19.398438 L 19.3125 -19.976562 L 18.730469 -20.296875 L 15.136719 -20.265625 L 14.585938 -19.949219 L 14.265625 -19.339844 L 14.238281 -18.730469 L 14.324219 -18.265625 L 14.238281 -17.050781 L 14.292969 -16.410156 L 14.238281 -11.222656 L 14.0625 -10.726562 L 13.628906 -10.929688 L 11.570312 -12.988281 L 10.757812 -13.628906 L 5.046875 -19.398438 L 4.609375 -19.746094 L 3.941406 -20.09375 L 3.074219 -20.296875 L 2.40625 -20.007812 L 2.144531 -19.457031 L 2.144531 -10.671875 L 2.117188 -10.175781 L 2.175781 -8.988281 L 2.085938 -8.496094 L 2.144531 -3.742188 L 2.085938 -3.1875 L 2.144531 -0.753906 L 2.40625 -0.203125 L 3.015625 0 L 4.203125 0.0585938 L 4.84375 0 L 5.972656 0.0859375 L 6.582031 0.0585938 L 7.160156 -0.230469 L 7.453125 -1.128906 L 7.480469 -8.464844 L 7.539062 -9.046875 L 7.742188 -9.539062 L 8.117188 -9.394531 L 8.496094 -8.902344 L 10.554688 -6.929688 L 10.929688 -6.496094 L 11.425781 -6.175781 L 15.917969 -1.710938 L 16.671875 -0.871094 Z M 17.105469 -0.492188 "/></g></g></g><g fill="#000000" fill-opacity="1"><g transform="translate(272.681464, 272.184503)"><g><path d="M 10.089844 0.0859375 L 14.238281 0.0273438 L 14.84375 -0.230469 L 15.164062 -0.839844 L 15.164062 -3.769531 L 14.84375 -4.347656 L 14.238281 -4.609375 L 13.570312 -4.550781 L 13.019531 -4.640625 L 11.539062 -4.667969 L 10.582031 -4.550781 L 10.003906 -4.609375 L 9.367188 -4.582031 L 8.816406 -4.667969 L 8.175781 -4.609375 L 7.566406 -4.898438 L 7.335938 -5.421875 L 7.335938 -7.25 L 7.597656 -7.859375 L 8.117188 -8.175781 L 8.988281 -8.207031 L 9.917969 -8.117188 L 11.019531 -8.175781 L 12.207031 -8.148438 L 12.785156 -8.207031 L 13.453125 -8.175781 L 14.035156 -8.410156 L 14.238281 -8.988281 L 14.324219 -11.597656 L 14.035156 -12.410156 L 13.367188 -12.785156 L 11.65625 -12.785156 L 11.046875 -12.730469 L 9.828125 -12.816406 L 8.148438 -12.757812 L 7.539062 -13.019531 L 7.308594 -13.917969 L 7.308594 -14.816406 L 7.566406 -15.367188 L 8.207031 -15.597656 L 8.757812 -15.570312 L 9.308594 -15.6875 L 13.453125 -15.628906 L 14.003906 -15.65625 L 14.613281 -16.003906 L 14.902344 -16.527344 L 14.875 -17.105469 L 14.902344 -17.6875 L 14.84375 -19.425781 L 14.585938 -19.976562 L 14.003906 -20.210938 L 13.394531 -20.210938 L 12.875 -20.324219 L 10.523438 -20.296875 L 9.886719 -20.238281 L 9.308594 -20.296875 L 8.816406 -20.265625 L 8.234375 -20.324219 L 5.855469 -20.265625 L 5.277344 -20.355469 L 4.726562 -20.238281 L 4.203125 -20.296875 L 3.625 -20.238281 L 3.042969 -20.265625 L 2.4375 -20.035156 L 2.117188 -19.425781 L 2.175781 -18.324219 L 2.085938 -17.136719 L 2.175781 -16.5 L 2.117188 -13.65625 L 2.203125 -13.046875 L 2.144531 -12.496094 L 2.117188 -10.121094 L 2.203125 -9.597656 L 2.175781 -4.898438 L 2.117188 -4.347656 L 2.203125 -3.769531 L 2.117188 -1.769531 L 2.175781 -1.128906 L 2.40625 -0.347656 L 3.277344 0.0273438 L 5.363281 0.0585938 L 6.003906 0 L 6.523438 0.0273438 L 7.710938 -0.0585938 L 8.261719 0.0585938 L 8.929688 0.0859375 L 9.511719 0.0273438 Z M 10.089844 0.0859375 "/></g></g></g><g fill="#000000" fill-opacity="1"><g transform="translate(109.523435, 291.134482)"><g><path d="M 5.96875 -5.25 C 6.539062 -5.019531 6.992188 -4.695312 7.328125 -4.28125 C 7.671875 -3.875 7.84375 -3.394531 7.84375 -2.84375 C 7.84375 -2.195312 7.6875 -1.660156 7.375 -1.234375 C 7.0625 -0.816406 6.648438 -0.503906 6.140625 -0.296875 C 5.628906 -0.0976562 5.070312 0 4.46875 0 L 1.453125 0 L 1.453125 -10.125 L 4.078125 -10.125 C 5.109375 -10.125 5.910156 -9.910156 6.484375 -9.484375 C 7.054688 -9.054688 7.34375 -8.421875 7.34375 -7.578125 C 7.34375 -7.046875 7.222656 -6.582031 6.984375 -6.1875 C 6.742188 -5.789062 6.40625 -5.476562 5.96875 -5.25 Z M 2.8125 -5.703125 L 4.359375 -5.703125 C 4.878906 -5.703125 5.269531 -5.847656 5.53125 -6.140625 C 5.800781 -6.441406 5.9375 -6.828125 5.9375 -7.296875 C 5.9375 -7.804688 5.773438 -8.1875 5.453125 -8.4375 C 5.140625 -8.6875 4.695312 -8.8125 4.125 -8.8125 L 2.8125 -8.8125 Z M 4.40625 -1.265625 C 5 -1.265625 5.484375 -1.394531 5.859375 -1.65625 C 6.242188 -1.925781 6.4375 -2.316406 6.4375 -2.828125 C 6.4375 -3.359375 6.226562 -3.75 5.8125 -4 C 5.394531 -4.25 4.894531 -4.375 4.3125 -4.375 L 2.8125 -4.375 L 2.8125 -1.265625 Z M 4.40625 -1.265625 "/></g></g></g><g fill="#000000" fill-opacity="1"><g transform="translate(118.184598, 291.134482)"><g><path d="M 2.390625 -4.421875 C 2.546875 -4.742188 2.757812 -5.023438 3.03125 -5.265625 C 3.300781 -5.503906 3.59375 -5.6875 3.90625 -5.8125 C 4.21875 -5.945312 4.488281 -6.019531 4.71875 -6.03125 L 4.65625 -4.734375 C 4.238281 -4.753906 3.859375 -4.671875 3.515625 -4.484375 C 3.179688 -4.296875 2.914062 -4.035156 2.71875 -3.703125 C 2.53125 -3.367188 2.4375 -3.015625 2.4375 -2.640625 L 2.4375 0 L 1.140625 0 L 1.140625 -5.796875 L 2.296875 -5.796875 Z M 2.390625 -4.421875 "/></g></g></g><g fill="#000000" fill-opacity="1"><g transform="translate(123.445664, 291.134482)"><g><path d="M 2.4375 -5.796875 L 2.4375 0 L 1.140625 0 L 1.140625 -5.796875 Z M 0.734375 -8 C 0.734375 -8.195312 0.8125 -8.363281 0.96875 -8.5 C 1.125 -8.644531 1.304688 -8.71875 1.515625 -8.71875 C 1.710938 -8.71875 1.890625 -8.644531 2.046875 -8.5 C 2.203125 -8.363281 2.28125 -8.195312 2.28125 -8 C 2.28125 -7.789062 2.203125 -7.613281 2.046875 -7.46875 C 1.890625 -7.332031 1.710938 -7.265625 1.515625 -7.265625 C 1.304688 -7.265625 1.125 -7.332031 0.96875 -7.46875 C 0.8125 -7.613281 0.734375 -7.789062 0.734375 -8 Z M 0.734375 -8 "/></g></g></g><g fill="#000000" fill-opacity="1"><g transform="translate(127.013668, 291.134482)"><g><path d="M 2.4375 -10.84375 L 2.4375 0 L 1.140625 0 L 1.140625 -10.84375 Z M 2.4375 -10.84375 "/></g></g></g><g fill="#000000" fill-opacity="1"><g transform="translate(130.581672, 291.134482)"><g><path d="M 2.4375 -10.84375 L 2.4375 0 L 1.140625 0 L 1.140625 -10.84375 Z M 2.4375 -10.84375 "/></g></g></g><g fill="#000000" fill-opacity="1"><g transform="translate(134.149677, 291.134482)"><g><path d="M 7.078125 -5.796875 L 7.078125 0 L 5.78125 0 L 5.78125 -0.953125 C 5.570312 -0.679688 5.269531 -0.429688 4.875 -0.203125 C 4.488281 0.0234375 4.050781 0.140625 3.5625 0.140625 C 3.007812 0.140625 2.507812 0.0195312 2.0625 -0.21875 C 1.625 -0.457031 1.273438 -0.804688 1.015625 -1.265625 C 0.753906 -1.722656 0.625 -2.265625 0.625 -2.890625 C 0.625 -3.523438 0.753906 -4.078125 1.015625 -4.546875 C 1.285156 -5.023438 1.644531 -5.390625 2.09375 -5.640625 C 2.550781 -5.898438 3.054688 -6.03125 3.609375 -6.03125 C 4.109375 -6.03125 4.539062 -5.921875 4.90625 -5.703125 C 5.269531 -5.492188 5.5625 -5.21875 5.78125 -4.875 L 5.875 -5.796875 Z M 3.90625 -0.9375 C 4.382812 -0.9375 4.789062 -1.066406 5.125 -1.328125 C 5.46875 -1.597656 5.6875 -1.960938 5.78125 -2.421875 L 5.78125 -3.5625 C 5.664062 -3.976562 5.429688 -4.3125 5.078125 -4.5625 C 4.722656 -4.820312 4.316406 -4.953125 3.859375 -4.953125 C 3.515625 -4.953125 3.195312 -4.867188 2.90625 -4.703125 C 2.613281 -4.535156 2.378906 -4.300781 2.203125 -4 C 2.035156 -3.695312 1.953125 -3.351562 1.953125 -2.96875 C 1.953125 -2.59375 2.039062 -2.25 2.21875 -1.9375 C 2.394531 -1.632812 2.628906 -1.390625 2.921875 -1.203125 C 3.222656 -1.023438 3.550781 -0.9375 3.90625 -0.9375 Z M 3.90625 -0.9375 "/></g></g></g><g fill="#000000" fill-opacity="1"><g transform="translate(142.36309, 291.134482)"><g/></g></g><g fill="#000000" fill-opacity="1"><g transform="translate(146.784617, 291.134482)"><g><path d="M 2.4375 -10.84375 L 2.4375 0 L 1.140625 0 L 1.140625 -10.84375 Z M 2.4375 -10.84375 "/></g></g></g><g fill="#000000" fill-opacity="1"><g transform="translate(150.352622, 291.134482)"><g><path d="M 7.078125 -5.796875 L 7.078125 0 L 5.78125 0 L 5.78125 -0.953125 C 5.570312 -0.679688 5.269531 -0.429688 4.875 -0.203125 C 4.488281 0.0234375 4.050781 0.140625 3.5625 0.140625 C 3.007812 0.140625 2.507812 0.0195312 2.0625 -0.21875 C 1.625 -0.457031 1.273438 -0.804688 1.015625 -1.265625 C 0.753906 -1.722656 0.625 -2.265625 0.625 -2.890625 C 0.625 -3.523438 0.753906 -4.078125 1.015625 -4.546875 C 1.285156 -5.023438 1.644531 -5.390625 2.09375 -5.640625 C 2.550781 -5.898438 3.054688 -6.03125 3.609375 -6.03125 C 4.109375 -6.03125 4.539062 -5.921875 4.90625 -5.703125 C 5.269531 -5.492188 5.5625 -5.21875 5.78125 -4.875 L 5.875 -5.796875 Z M 3.90625 -0.9375 C 4.382812 -0.9375 4.789062 -1.066406 5.125 -1.328125 C 5.46875 -1.597656 5.6875 -1.960938 5.78125 -2.421875 L 5.78125 -3.5625 C 5.664062 -3.976562 5.429688 -4.3125 5.078125 -4.5625 C 4.722656 -4.820312 4.316406 -4.953125 3.859375 -4.953125 C 3.515625 -4.953125 3.195312 -4.867188 2.90625 -4.703125 C 2.613281 -4.535156 2.378906 -4.300781 2.203125 -4 C 2.035156 -3.695312 1.953125 -3.351562 1.953125 -2.96875 C 1.953125 -2.59375 2.039062 -2.25 2.21875 -1.9375 C 2.394531 -1.632812 2.628906 -1.390625 2.921875 -1.203125 C 3.222656 -1.023438 3.550781 -0.9375 3.90625 -0.9375 Z M 3.90625 -0.9375 "/></g></g></g><g fill="#000000" fill-opacity="1"><g transform="translate(158.566034, 291.134482)"><g/></g></g><g fill="#000000" fill-opacity="1"><g transform="translate(162.987562, 291.134482)"><g><path d="M 2.4375 -10.84375 L 2.4375 0 L 1.140625 0 L 1.140625 -10.84375 Z M 2.4375 -10.84375 "/></g></g></g><g fill="#000000" fill-opacity="1"><g transform="translate(166.555566, 291.134482)"><g><path d="M 6.53125 -5.796875 L 6.53125 0 L 5.34375 0 L 5.265625 -1.109375 C 5.066406 -0.710938 4.757812 -0.390625 4.34375 -0.140625 C 3.9375 0.0976562 3.484375 0.21875 2.984375 0.21875 C 2.453125 0.21875 2.015625 0.0625 1.671875 -0.25 C 1.328125 -0.570312 1.148438 -0.992188 1.140625 -1.515625 L 1.140625 -5.796875 L 2.4375 -5.796875 L 2.4375 -1.96875 C 2.457031 -1.644531 2.550781 -1.382812 2.71875 -1.1875 C 2.894531 -1 3.15625 -0.898438 3.5 -0.890625 C 3.8125 -0.890625 4.097656 -0.984375 4.359375 -1.171875 C 4.628906 -1.367188 4.835938 -1.632812 4.984375 -1.96875 C 5.140625 -2.3125 5.21875 -2.6875 5.21875 -3.09375 L 5.21875 -5.796875 Z M 6.53125 -5.796875 "/></g></g></g><g fill="#000000" fill-opacity="1"><g transform="translate(174.209294, 291.134482)"><g><path d="M 2.515625 -1.078125 L 5.75 -1.078125 L 5.75 0 L 0.390625 0 L 3.6875 -4.734375 L 1.6875 -4.734375 C 1.375 -4.734375 1.117188 -4.820312 0.921875 -5 C 0.722656 -5.1875 0.625 -5.453125 0.625 -5.796875 L 0.625 -6.359375 L 1.625 -6.359375 L 1.625 -6.171875 C 1.625 -6.023438 1.65625 -5.925781 1.71875 -5.875 C 1.789062 -5.820312 1.914062 -5.796875 2.09375 -5.796875 L 5.8125 -5.796875 Z M 2.515625 -1.078125 "/></g></g></g><g fill="#000000" fill-opacity="1"><g transform="translate(180.68768, 291.134482)"><g/></g></g><g fill="#000000" fill-opacity="1"><g transform="translate(185.109207, 291.134482)"><g><path d="M 3.84375 -0.984375 C 4.332031 -0.984375 4.804688 -1.148438 5.265625 -1.484375 L 5.859375 -0.515625 C 5.554688 -0.304688 5.222656 -0.144531 4.859375 -0.03125 C 4.503906 0.0820312 4.160156 0.140625 3.828125 0.140625 C 3.179688 0.140625 2.613281 0.0078125 2.125 -0.25 C 1.644531 -0.519531 1.273438 -0.890625 1.015625 -1.359375 C 0.753906 -1.828125 0.625 -2.351562 0.625 -2.9375 C 0.625 -3.507812 0.765625 -4.03125 1.046875 -4.5 C 1.335938 -4.96875 1.726562 -5.335938 2.21875 -5.609375 C 2.71875 -5.890625 3.257812 -6.03125 3.84375 -6.03125 C 4.601562 -6.03125 5.238281 -5.804688 5.75 -5.359375 C 6.257812 -4.921875 6.609375 -4.304688 6.796875 -3.515625 L 2.203125 -1.90625 C 2.367188 -1.613281 2.59375 -1.382812 2.875 -1.21875 C 3.15625 -1.0625 3.476562 -0.984375 3.84375 -0.984375 Z M 3.75 -5 C 3.21875 -5 2.78125 -4.8125 2.4375 -4.4375 C 2.09375 -4.0625 1.921875 -3.585938 1.921875 -3.015625 C 1.921875 -2.867188 1.925781 -2.757812 1.9375 -2.6875 L 5.3125 -3.9375 C 5.164062 -4.25 4.960938 -4.503906 4.703125 -4.703125 C 4.453125 -4.898438 4.132812 -5 3.75 -5 Z M 3.75 -5 "/></g></g></g><g fill="#000000" fill-opacity="1"><g transform="translate(192.385143, 291.134482)"><g><path d="M 4.734375 -6.015625 C 5.273438 -6.015625 5.722656 -5.851562 6.078125 -5.53125 C 6.429688 -5.207031 6.613281 -4.789062 6.625 -4.28125 L 6.625 0 L 5.3125 0 L 5.3125 -3.84375 C 5.289062 -4.164062 5.191406 -4.421875 5.015625 -4.609375 C 4.835938 -4.796875 4.570312 -4.894531 4.21875 -4.90625 C 3.695312 -4.90625 3.269531 -4.695312 2.9375 -4.28125 C 2.601562 -3.875 2.4375 -3.351562 2.4375 -2.71875 L 2.4375 0 L 1.140625 0 L 1.140625 -5.796875 L 2.3125 -5.796875 L 2.390625 -4.671875 C 2.597656 -5.097656 2.90625 -5.425781 3.3125 -5.65625 C 3.726562 -5.894531 4.203125 -6.015625 4.734375 -6.015625 Z M 4.734375 -6.015625 "/></g></g></g><g fill="#000000" fill-opacity="1"><g transform="translate(200.122825, 291.134482)"><g/></g></g><g fill="#000000" fill-opacity="1"><g transform="translate(204.544352, 291.134482)"><g><path d="M 3.015625 -8.34375 L 3.015625 -5.78125 L 4.59375 -5.78125 L 4.59375 -4.75 L 3.015625 -4.75 L 3.015625 0 L 1.6875 0 L 1.6875 -4.75 L 0.625 -4.75 L 0.625 -5.78125 L 1.6875 -5.78125 L 1.6875 -8.34375 Z M 3.015625 -8.34375 "/></g></g></g><g fill="#000000" fill-opacity="1"><g transform="translate(209.581538, 291.134482)"><g><path d="M 6.53125 -5.796875 L 6.53125 0 L 5.34375 0 L 5.265625 -1.109375 C 5.066406 -0.710938 4.757812 -0.390625 4.34375 -0.140625 C 3.9375 0.0976562 3.484375 0.21875 2.984375 0.21875 C 2.453125 0.21875 2.015625 0.0625 1.671875 -0.25 C 1.328125 -0.570312 1.148438 -0.992188 1.140625 -1.515625 L 1.140625 -5.796875 L 2.4375 -5.796875 L 2.4375 -1.96875 C 2.457031 -1.644531 2.550781 -1.382812 2.71875 -1.1875 C 2.894531 -1 3.15625 -0.898438 3.5 -0.890625 C 3.8125 -0.890625 4.097656 -0.984375 4.359375 -1.171875 C 4.628906 -1.367188 4.835938 -1.632812 4.984375 -1.96875 C 5.140625 -2.3125 5.21875 -2.6875 5.21875 -3.09375 L 5.21875 -5.796875 Z M 6.53125 -5.796875 "/></g></g></g><g fill="#000000" fill-opacity="1"><g transform="translate(217.235266, 291.134482)"><g/></g></g><g fill="#000000" fill-opacity="1"><g transform="translate(221.656793, 291.134482)"><g><path d="M 2.765625 0.125 C 2.335938 0.125 1.929688 0.0507812 1.546875 -0.09375 C 1.160156 -0.25 0.847656 -0.46875 0.609375 -0.75 L 1.15625 -1.515625 C 1.394531 -1.285156 1.640625 -1.109375 1.890625 -0.984375 C 2.148438 -0.867188 2.40625 -0.8125 2.65625 -0.8125 C 2.96875 -0.8125 3.21875 -0.867188 3.40625 -0.984375 C 3.601562 -1.109375 3.703125 -1.296875 3.703125 -1.546875 C 3.703125 -1.742188 3.640625 -1.90625 3.515625 -2.03125 C 3.398438 -2.15625 3.265625 -2.242188 3.109375 -2.296875 C 2.960938 -2.347656 2.707031 -2.429688 2.34375 -2.546875 C 1.351562 -2.867188 0.859375 -3.429688 0.859375 -4.234375 C 0.859375 -4.722656 1.035156 -5.140625 1.390625 -5.484375 C 1.753906 -5.828125 2.253906 -6 2.890625 -6 C 3.304688 -6 3.671875 -5.945312 3.984375 -5.84375 C 4.304688 -5.75 4.601562 -5.585938 4.875 -5.359375 L 4.359375 -4.5625 C 4.203125 -4.71875 4.007812 -4.84375 3.78125 -4.9375 C 3.550781 -5.03125 3.335938 -5.082031 3.140625 -5.09375 C 2.878906 -5.09375 2.65625 -5.03125 2.46875 -4.90625 C 2.28125 -4.78125 2.1875 -4.609375 2.1875 -4.390625 C 2.1875 -4.210938 2.242188 -4.066406 2.359375 -3.953125 C 2.484375 -3.835938 2.609375 -3.753906 2.734375 -3.703125 C 2.867188 -3.648438 3.128906 -3.5625 3.515625 -3.4375 C 3.992188 -3.28125 4.363281 -3.078125 4.625 -2.828125 C 4.894531 -2.578125 5.03125 -2.238281 5.03125 -1.8125 C 5.03125 -1.25 4.832031 -0.785156 4.4375 -0.421875 C 4.039062 -0.0546875 3.484375 0.125 2.765625 0.125 Z M 2.765625 0.125 "/></g></g></g><g fill="#000000" fill-opacity="1"><g transform="translate(227.365609, 291.134482)"><g><path d="M 0.625 -2.953125 C 0.625 -3.523438 0.757812 -4.046875 1.03125 -4.515625 C 1.3125 -4.984375 1.695312 -5.351562 2.1875 -5.625 C 2.675781 -5.894531 3.226562 -6.03125 3.84375 -6.03125 C 4.46875 -6.03125 5.019531 -5.894531 5.5 -5.625 C 5.976562 -5.351562 6.347656 -4.984375 6.609375 -4.515625 C 6.878906 -4.054688 7.015625 -3.535156 7.015625 -2.953125 C 7.015625 -2.378906 6.878906 -1.851562 6.609375 -1.375 C 6.347656 -0.90625 5.972656 -0.535156 5.484375 -0.265625 C 5.003906 0.00390625 4.453125 0.140625 3.828125 0.140625 C 3.210938 0.140625 2.660156 0.015625 2.171875 -0.234375 C 1.691406 -0.492188 1.3125 -0.859375 1.03125 -1.328125 C 0.757812 -1.796875 0.625 -2.335938 0.625 -2.953125 Z M 1.953125 -2.9375 C 1.953125 -2.570312 2.03125 -2.234375 2.1875 -1.921875 C 2.351562 -1.617188 2.578125 -1.378906 2.859375 -1.203125 C 3.148438 -1.023438 3.46875 -0.9375 3.8125 -0.9375 C 4.351562 -0.9375 4.800781 -1.128906 5.15625 -1.515625 C 5.507812 -1.898438 5.6875 -2.375 5.6875 -2.9375 C 5.6875 -3.507812 5.507812 -3.988281 5.15625 -4.375 C 4.800781 -4.757812 4.351562 -4.953125 3.8125 -4.953125 C 3.457031 -4.953125 3.140625 -4.859375 2.859375 -4.671875 C 2.578125 -4.492188 2.351562 -4.25 2.1875 -3.9375 C 2.03125 -3.632812 1.953125 -3.300781 1.953125 -2.9375 Z M 1.953125 -2.9375 "/></g></g></g><g fill="#000000" fill-opacity="1"><g transform="translate(234.991357, 291.134482)"><g><path d="M 4.734375 -6.015625 C 5.273438 -6.015625 5.722656 -5.851562 6.078125 -5.53125 C 6.429688 -5.207031 6.613281 -4.789062 6.625 -4.28125 L 6.625 0 L 5.3125 0 L 5.3125 -3.84375 C 5.289062 -4.164062 5.191406 -4.421875 5.015625 -4.609375 C 4.835938 -4.796875 4.570312 -4.894531 4.21875 -4.90625 C 3.695312 -4.90625 3.269531 -4.695312 2.9375 -4.28125 C 2.601562 -3.875 2.4375 -3.351562 2.4375 -2.71875 L 2.4375 0 L 1.140625 0 L 1.140625 -5.796875 L 2.3125 -5.796875 L 2.390625 -4.671875 C 2.597656 -5.097656 2.90625 -5.425781 3.3125 -5.65625 C 3.726562 -5.894531 4.203125 -6.015625 4.734375 -6.015625 Z M 4.734375 -6.015625 "/></g></g></g><g fill="#000000" fill-opacity="1"><g transform="translate(242.729039, 291.134482)"><g><path d="M 2.390625 -4.421875 C 2.546875 -4.742188 2.757812 -5.023438 3.03125 -5.265625 C 3.300781 -5.503906 3.59375 -5.6875 3.90625 -5.8125 C 4.21875 -5.945312 4.488281 -6.019531 4.71875 -6.03125 L 4.65625 -4.734375 C 4.238281 -4.753906 3.859375 -4.671875 3.515625 -4.484375 C 3.179688 -4.296875 2.914062 -4.035156 2.71875 -3.703125 C 2.53125 -3.367188 2.4375 -3.015625 2.4375 -2.640625 L 2.4375 0 L 1.140625 0 L 1.140625 -5.796875 L 2.296875 -5.796875 Z M 2.390625 -4.421875 "/></g></g></g><g fill="#000000" fill-opacity="1"><g transform="translate(247.990105, 291.134482)"><g><path d="M 2.4375 -5.796875 L 2.4375 0 L 1.140625 0 L 1.140625 -5.796875 Z M 0.734375 -8 C 0.734375 -8.195312 0.8125 -8.363281 0.96875 -8.5 C 1.125 -8.644531 1.304688 -8.71875 1.515625 -8.71875 C 1.710938 -8.71875 1.890625 -8.644531 2.046875 -8.5 C 2.203125 -8.363281 2.28125 -8.195312 2.28125 -8 C 2.28125 -7.789062 2.203125 -7.613281 2.046875 -7.46875 C 1.890625 -7.332031 1.710938 -7.265625 1.515625 -7.265625 C 1.304688 -7.265625 1.125 -7.332031 0.96875 -7.46875 C 0.8125 -7.613281 0.734375 -7.789062 0.734375 -8 Z M 0.734375 -8 "/></g></g></g><g fill="#000000" fill-opacity="1"><g transform="translate(251.558109, 291.134482)"><g><path d="M 2.765625 0.125 C 2.335938 0.125 1.929688 0.0507812 1.546875 -0.09375 C 1.160156 -0.25 0.847656 -0.46875 0.609375 -0.75 L 1.15625 -1.515625 C 1.394531 -1.285156 1.640625 -1.109375 1.890625 -0.984375 C 2.148438 -0.867188 2.40625 -0.8125 2.65625 -0.8125 C 2.96875 -0.8125 3.21875 -0.867188 3.40625 -0.984375 C 3.601562 -1.109375 3.703125 -1.296875 3.703125 -1.546875 C 3.703125 -1.742188 3.640625 -1.90625 3.515625 -2.03125 C 3.398438 -2.15625 3.265625 -2.242188 3.109375 -2.296875 C 2.960938 -2.347656 2.707031 -2.429688 2.34375 -2.546875 C 1.351562 -2.867188 0.859375 -3.429688 0.859375 -4.234375 C 0.859375 -4.722656 1.035156 -5.140625 1.390625 -5.484375 C 1.753906 -5.828125 2.253906 -6 2.890625 -6 C 3.304688 -6 3.671875 -5.945312 3.984375 -5.84375 C 4.304688 -5.75 4.601562 -5.585938 4.875 -5.359375 L 4.359375 -4.5625 C 4.203125 -4.71875 4.007812 -4.84375 3.78125 -4.9375 C 3.550781 -5.03125 3.335938 -5.082031 3.140625 -5.09375 C 2.878906 -5.09375 2.65625 -5.03125 2.46875 -4.90625 C 2.28125 -4.78125 2.1875 -4.609375 2.1875 -4.390625 C 2.1875 -4.210938 2.242188 -4.066406 2.359375 -3.953125 C 2.484375 -3.835938 2.609375 -3.753906 2.734375 -3.703125 C 2.867188 -3.648438 3.128906 -3.5625 3.515625 -3.4375 C 3.992188 -3.28125 4.363281 -3.078125 4.625 -2.828125 C 4.894531 -2.578125 5.03125 -2.238281 5.03125 -1.8125 C 5.03125 -1.25 4.832031 -0.785156 4.4375 -0.421875 C 4.039062 -0.0546875 3.484375 0.125 2.765625 0.125 Z M 2.765625 0.125 "/></g></g></g><g fill="#000000" fill-opacity="1"><g transform="translate(257.266925, 291.134482)"><g><path d="M 7.078125 -5.796875 L 7.078125 0 L 5.78125 0 L 5.78125 -0.953125 C 5.570312 -0.679688 5.269531 -0.429688 4.875 -0.203125 C 4.488281 0.0234375 4.050781 0.140625 3.5625 0.140625 C 3.007812 0.140625 2.507812 0.0195312 2.0625 -0.21875 C 1.625 -0.457031 1.273438 -0.804688 1.015625 -1.265625 C 0.753906 -1.722656 0.625 -2.265625 0.625 -2.890625 C 0.625 -3.523438 0.753906 -4.078125 1.015625 -4.546875 C 1.285156 -5.023438 1.644531 -5.390625 2.09375 -5.640625 C 2.550781 -5.898438 3.054688 -6.03125 3.609375 -6.03125 C 4.109375 -6.03125 4.539062 -5.921875 4.90625 -5.703125 C 5.269531 -5.492188 5.5625 -5.21875 5.78125 -4.875 L 5.875 -5.796875 Z M 3.90625 -0.9375 C 4.382812 -0.9375 4.789062 -1.066406 5.125 -1.328125 C 5.46875 -1.597656 5.6875 -1.960938 5.78125 -2.421875 L 5.78125 -3.5625 C 5.664062 -3.976562 5.429688 -4.3125 5.078125 -4.5625 C 4.722656 -4.820312 4.316406 -4.953125 3.859375 -4.953125 C 3.515625 -4.953125 3.195312 -4.867188 2.90625 -4.703125 C 2.613281 -4.535156 2.378906 -4.300781 2.203125 -4 C 2.035156 -3.695312 1.953125 -3.351562 1.953125 -2.96875 C 1.953125 -2.59375 2.039062 -2.25 2.21875 -1.9375 C 2.394531 -1.632812 2.628906 -1.390625 2.921875 -1.203125 C 3.222656 -1.023438 3.550781 -0.9375 3.90625 -0.9375 Z M 3.90625 -0.9375 "/></g></g></g></svg>